<?xml version="1.0" standalone="no"?>
<!DOCTYPE svg PUBLIC "-//W3C//DTD SVG 20010904//EN"
 "http://www.w3.org/TR/2001/REC-SVG-20010904/DTD/svg10.dtd">
<svg version="1.0" xmlns="http://www.w3.org/2000/svg"
 width="512.000000pt" height="512.000000pt" viewBox="0 0 512.000000 512.000000"
 preserveAspectRatio="xMidYMid meet">
<metadata>
Created by potrace 1.11, written by Peter Selinger 2001-2013
</metadata>
<g transform="translate(0.000000,512.000000) scale(0.100000,-0.100000)"
fill="#000000" stroke="none">
<path d="M4605 5106 c-97 -27 -178 -97 -223 -194 l-27 -57 0 -1485 0 -1485 26
-56 c37 -79 90 -133 165 -170 l64 -32 0 -728 0 -729 -99 0 c-91 0 -102 -2
-127 -24 -36 -30 -39 -86 -6 -119 22 -22 28 -22 310 -25 l288 -3 27 25 c37 34
37 87 1 121 -25 23 -35 25 -125 25 l-99 0 0 140 c0 77 0 376 0 665 0 289 0
556 0 594 0 67 1 69 28 75 43 11 126 72 159 119 71 98 66 -18 67 1587 1 1022
-2 1460 -9 1495 -35 157 -158 263 -313 270 -37 1 -85 -3 -107 -9z"/>
<path d="M372 5028 c-140 -21 -258 -139 -279 -279 -5 -29 -8 -702 -7 -1494 l1
-1440 23 -60 c29 -76 114 -163 183 -190 l47 -18 0 -116 c0 -264 0 -938 0
-1093 l0 -168 -98 0 c-106 0 -121 -6 -146 -54 -11 -21 -12 -35 -4 -57 19 -55
40 -59 338 -59 167 0 279 4 291 10 21 12 49 60 49 85 0 9 -13 30 -29 46 -29
28 -32 29 -130 29 l-101 0 0 689 0 689 34 12 c96 31 183 126 210 230 13 47 15
265 15 1500 0 1373 -1 1448 -19 1502 -51 163 -208 261 -378 236z"/>
<path d="M1290 4168 c-63 -18 -124 -71 -158 -138 -16 -33 -17 -99 -17 -960 l0
-925 22 -41 c12 -22 39 -56 59 -74 73 -64 72 -64 472 -66 199 -1 365 -3 367
-6 3 -2 -109 -118 -248 -256 l-252 -252 -212 0 -213 0 0 -679 c0 -534 3 -680
13 -683 10 -3 2857 -2 2880 1 4 0 7 307 7 681 l0 680 -213 0 -212 0 -255 255
c-140 140 -253 255 -250 256 3 0 169 1 370 2 l365 2 48 25 c63 32 110 85 131
147 15 45 16 136 14 954 -3 849 -4 906 -21 940 -26 53 -66 94 -117 120 l-45
24 -1250 2 c-808 1 -1262 -2 -1285 -9z"/>
</g>
</svg>
