<?xml version="1.0" standalone="no"?>
<!DOCTYPE svg PUBLIC "-//W3C//DTD SVG 20010904//EN"
 "http://www.w3.org/TR/2001/REC-SVG-20010904/DTD/svg10.dtd">
<svg version="1.0" xmlns="http://www.w3.org/2000/svg"
 width="256.000000pt" height="256.000000pt" viewBox="0 0 256.000000 256.000000"
 preserveAspectRatio="xMidYMid meet">
<metadata>
Created by potrace 1.11, written by Peter Selinger 2001-2013
</metadata>
<g transform="translate(0.000000,256.000000) scale(0.100000,-0.100000)"
fill="#000000" stroke="none">
<path d="M1130 2554 c-213 -39 -290 -64 -434 -137 -344 -175 -590 -499 -673
-887 -25 -119 -25 -381 0 -500 109 -507 494 -895 997 -1005 114 -25 344 -30
461 -11 413 68 771 333 950 704 96 199 135 384 126 606 -8 211 -45 355 -140
540 -173 340 -497 587 -877 671 -73 16 -355 29 -410 19z m60 -829 l0 -56 -147
3 -148 3 -3 53 -3 52 150 0 151 0 0 -55z m0 -165 l0 -50 -150 0 -150 0 0 50 0
50 150 0 150 0 0 -50z m-99 -150 c109 -33 232 -138 284 -240 82 -161 72 -353
-25 -498 -120 -179 -328 -259 -533 -206 -86 22 -147 55 -215 118 -99 92 -154
219 -154 356 0 335 321 571 643 470z"/>
<path d="M895 1029 c-78 -45 -72 -152 10 -179 96 -32 173 91 100 160 -27 25
-82 35 -110 19z"/>
</g>
</svg>
